<svg id="VS_Purple_mixed" data-name="VS Purple mixed" xmlns="http://www.w3.org/2000/svg" viewBox="0 0 938.05 246.71"><defs><style>.cls-1{fill:#3c3c3b;}.cls-2{fill:#e30613;opacity:0;}.cls-3{fill:#008d36;}.cls-4{fill:#612f88;}</style></defs><rect class="cls-1" y="38.32" width="170.08" height="170.08" rx="28.35"/><path class="cls-2" d="M76.46-22.72v70.8L79.39,51,129,100.63,79.39,150.25l-2.93,2.93V224l17.07-17.07,99.21-99.21,7.07-7.07-7.07-7.07L93.53-5.65,76.46-22.72Z" transform="translate(-1.42 22.72)"/><polygon class="cls-3" points="85.04 24.14 85.04 66.66 141.73 123.36 85.04 180.05 85.04 222.57 184.25 123.36 85.04 24.14"/><path class="cls-4" d="M244.72,173c-18,0-31.06-13.36-31.06-31.78v-3.84a2.5,2.5,0,0,1,2.5-2.5h12.72a2.5,2.5,0,0,1,2.5,2.5v5.28c0,6.61,5.45,12.62,11.42,12.62h40.56c6.73,0,11.42-6.65,11.42-12.62V123c0-6.9-5.15-12.67-11.49-12.86l-37.69-1.2c-18.23-.53-31-13.6-31-31.78v-17c0-18.12,13.56-31.78,31.54-31.78h33.36c18,0,31.07,13.36,31.07,31.78v4.08a2.5,2.5,0,0,1-2.5,2.5H295.36a2.5,2.5,0,0,1-2.5-2.5V58.63c0-6-4.69-12.62-11.42-12.62H244c-6.21,0-11.66,5.9-11.66,12.62V78.55c0,6.78,5.27,12.67,11.5,12.86l37.67,1c18,.53,31,13.89,31,31.78v17c0,18.42-13.06,31.78-31.06,31.78Z" transform="translate(-1.42 22.72)"/><path class="cls-4" d="M279.52,30.79c16.56,0,28.57,12.24,28.57,29.28v4.08H295.36V58.63c0-7.68-6-15.12-13.92-15.12H244c-7.92,0-14.16,7.44-14.16,15.12V78.55c0,7.92,6.24,15.12,13.92,15.36l37.68,1c16.32.48,28.56,12.24,28.56,29.28v17c0,17-12,29.28-28.56,29.28H244.72c-16.56,0-28.56-12.24-28.56-29.28v-3.84h12.72v5.28c0,7.68,6.24,15.12,13.92,15.12h40.56c7.92,0,13.92-7.44,13.92-15.12V123c0-7.92-6-15.12-13.92-15.36l-37.68-1.2c-16.56-.48-28.56-12.24-28.56-29.28v-17c0-17,12.48-29.28,29-29.28h33.36m0-5H246.16c-19.4,0-34,14.74-34,34.28v17c0,9.5,3.38,18.16,9.52,24.36a34.62,34.62,0,0,0,23.9,9.92l37.67,1.2c4.92.15,9.07,4.89,9.07,10.36v19.68c0,4.79-3.66,10.12-8.92,10.12H242.8c-4.58,0-8.92-4.92-8.92-10.12v-5.28a5,5,0,0,0-5-5H216.16a5,5,0,0,0-5,5v3.84c0,19.86,14.12,34.28,33.56,34.28h36.72c19.45,0,33.56-14.42,33.56-34.28v-17c0-19.29-14.05-33.71-33.41-34.28l-37.7-1c-4.81-.15-9-5-9-10.36V58.63c0-4.78,3.92-10.12,9.16-10.12h37.44c5.26,0,8.92,5.33,8.92,10.12v5.52a5,5,0,0,0,5,5h12.73a5,5,0,0,0,5-5V60.07c0-19.86-14.12-34.28-33.57-34.28Z" transform="translate(-1.42 22.72)"/><path class="cls-4" d="M359.2,173c-18,0-31.06-13.36-31.06-31.78v-3.84a2.5,2.5,0,0,1,2.5-2.5h12.72a2.5,2.5,0,0,1,2.5,2.5v5.28c0,6.61,5.44,12.62,11.42,12.62h40.56c6.73,0,11.42-6.65,11.42-12.62V123c0-6.9-5.15-12.67-11.49-12.86l-37.69-1.2c-18.24-.53-31-13.6-31-31.78v-17c0-18.12,13.56-31.78,31.54-31.78H394c18,0,31.06,13.36,31.06,31.78v4.08a2.5,2.5,0,0,1-2.5,2.5H409.84a2.5,2.5,0,0,1-2.5-2.5V58.63c0-6-4.69-12.62-11.42-12.62H358.48c-6.21,0-11.66,5.9-11.66,12.62V78.55c0,6.78,5.27,12.67,11.5,12.86l37.67,1c18,.53,31,13.89,31,31.78v17c0,18.42-13.06,31.78-31.06,31.78Z" transform="translate(-1.42 22.72)"/><path class="cls-4" d="M394,30.79c16.56,0,28.56,12.24,28.56,29.28v4.08H409.84V58.63c0-7.68-6-15.12-13.92-15.12H358.48c-7.92,0-14.16,7.44-14.16,15.12V78.55c0,7.92,6.24,15.12,13.92,15.36l37.68,1c16.32.48,28.56,12.24,28.56,29.28v17c0,17-12,29.28-28.56,29.28H359.2c-16.56,0-28.56-12.24-28.56-29.28v-3.84h12.72v5.28c0,7.68,6.24,15.12,13.92,15.12h40.56c7.92,0,13.92-7.44,13.92-15.12V123c0-7.92-6-15.12-13.92-15.36l-37.68-1.2c-16.56-.48-28.56-12.24-28.56-29.28v-17c0-17,12.48-29.28,29-29.28H394m0-5H360.64c-19.4,0-34,14.74-34,34.28v17c0,9.5,3.38,18.16,9.52,24.36a34.61,34.61,0,0,0,23.9,9.92l37.66,1.2c4.93.15,9.08,4.89,9.08,10.36v19.68c0,4.79-3.66,10.12-8.92,10.12H357.28c-4.58,0-8.92-4.92-8.92-10.12v-5.28a5,5,0,0,0-5-5H330.64a5,5,0,0,0-5,5v3.84c0,19.86,14.12,34.28,33.56,34.28h36.72c19.45,0,33.56-14.42,33.56-34.28v-17c0-19.29-14.05-33.71-33.41-34.28l-37.7-1c-4.81-.15-9.05-5-9.05-10.36V58.63c0-4.78,3.92-10.12,9.16-10.12h37.44c5.26,0,8.92,5.33,8.92,10.12v5.52a5,5,0,0,0,5,5h12.72a5,5,0,0,0,5-5V60.07c0-19.86-14.11-34.28-33.56-34.28Z" transform="translate(-1.42 22.72)"/><path class="cls-4" d="M528.64,172.49a2.5,2.5,0,0,1-2.5-2.5V109.37h-63.4V170a2.5,2.5,0,0,1-2.5,2.5H447.52A2.5,2.5,0,0,1,445,170V30.79a2.5,2.5,0,0,1,2.5-2.5h12.72a2.5,2.5,0,0,1,2.5,2.5V91.65h63.4V30.79a2.5,2.5,0,0,1,2.5-2.5h12.72a2.5,2.5,0,0,1,2.5,2.5V170a2.5,2.5,0,0,1-2.5,2.5Z" transform="translate(-1.42 22.72)"/><path class="cls-4" d="M541.36,30.79V170H528.64V106.87h-68.4V170H447.52V30.79h12.72V94.15h68.4V30.79h12.72m0-5H528.64a5,5,0,0,0-5,5V89.15h-58.4V30.79a5,5,0,0,0-5-5H447.52a5,5,0,0,0-5,5V170a5,5,0,0,0,5,5h12.72a5,5,0,0,0,5-5V111.87h58.4V170a5,5,0,0,0,5,5h12.72a5,5,0,0,0,5-5V30.79a5,5,0,0,0-5-5Z" transform="translate(-1.42 22.72)"/><rect class="cls-4" x="562.88" y="167.42" width="27.8" height="27.8" rx="4.9"/><path class="cls-4" d="M587.2,147.19a2.27,2.27,0,0,1,2.4,2.4v18a2.27,2.27,0,0,1-2.4,2.4h-18a2.27,2.27,0,0,1-2.4-2.4v-18a2.27,2.27,0,0,1,2.4-2.4h18m0-5h-18a7.24,7.24,0,0,0-7.4,7.4v18a7.24,7.24,0,0,0,7.4,7.4h18a7.24,7.24,0,0,0,7.4-7.4v-18a7.24,7.24,0,0,0-7.4-7.4Z" transform="translate(-1.42 22.72)"/><path class="cls-4" d="M695.2,172.49a2.5,2.5,0,0,1-2.5-2.5V128.7l-62-70V170a2.5,2.5,0,0,1-2.5,2.5H615a2.5,2.5,0,0,1-2.5-2.5V30.79a2.5,2.5,0,0,1,2.5-2.5h12.48a2.51,2.51,0,0,1,1.88.85l63.3,72.06V30.79a2.5,2.5,0,0,1,2.5-2.5h13.2a2.5,2.5,0,0,1,2.5,2.5V170a2.5,2.5,0,0,1-2.5,2.5Z" transform="translate(-1.42 22.72)"/><path class="cls-4" d="M708.4,30.79V170H695.2V127.75l-67-75.6V170H615V30.79h12.48l67.68,77v-77h13.2m0-5H695.2a5,5,0,0,0-5,5V94.56L631.27,27.49a5,5,0,0,0-3.75-1.7H615a5,5,0,0,0-5,5V170a5,5,0,0,0,5,5h13.2a5,5,0,0,0,5-5V65.33l57,64.32V170a5,5,0,0,0,5,5h13.2a5,5,0,0,0,5-5V30.79a5,5,0,0,0-5-5Z" transform="translate(-1.42 22.72)"/><path class="cls-4" d="M733.84,172.49a2.5,2.5,0,0,1-2.5-2.5V30.79a2.5,2.5,0,0,1,2.5-2.5h79a2.5,2.5,0,0,1,2.5,2.5V43.27a2.5,2.5,0,0,1-2.5,2.5H749.06V91.65h48.86a2.5,2.5,0,0,1,2.5,2.5v12.72a2.5,2.5,0,0,1-2.5,2.5H749.06v45.4H812.8a2.5,2.5,0,0,1,2.5,2.5V170a2.5,2.5,0,0,1-2.5,2.5Z" transform="translate(-1.42 22.72)"/><path class="cls-4" d="M812.8,30.79V43.27H746.56V94.15h51.36v12.72H746.56v50.4H812.8V170h-79V30.79h79m0-5h-79a5,5,0,0,0-5,5V170a5,5,0,0,0,5,5h79a5,5,0,0,0,5-5V157.27a5,5,0,0,0-5-5H751.56v-40.4h46.36a5,5,0,0,0,5-5V94.15a5,5,0,0,0-5-5H751.56V48.27H812.8a5,5,0,0,0,5-5V30.79a5,5,0,0,0-5-5Z" transform="translate(-1.42 22.72)"/><path class="cls-4" d="M877.83,172.49a2.5,2.5,0,0,1-2.5-2.5V45.77h-39.5a2.5,2.5,0,0,1-2.5-2.5V30.79a2.5,2.5,0,0,1,2.5-2.5h98.64a2.5,2.5,0,0,1,2.5,2.5V43.27a2.5,2.5,0,0,1-2.5,2.5H894.73V170a2.5,2.5,0,0,1-2.5,2.5Z" transform="translate(-1.42 22.72)"/><path class="cls-4" d="M934.47,30.79V43.27H892.23V170h-14.4V43.27h-42V30.79h98.64m0-5H835.83a5,5,0,0,0-5,5V43.27a5,5,0,0,0,5,5h37V170a5,5,0,0,0,5,5h14.4a5,5,0,0,0,5-5V48.27h37.24a5,5,0,0,0,5-5V30.79a5,5,0,0,0-5-5Z" transform="translate(-1.42 22.72)"/></svg>