<svg id="white" xmlns="http://www.w3.org/2000/svg" viewBox="0 0 938.05 246.71"><defs><style>.cls-1,.cls-2{fill:#f6f6f6;}.cls-2{opacity:0;}</style></defs><rect class="cls-1" y="38.32" width="170.08" height="170.08" rx="28.35"/><path class="cls-2" d="M77.87-21.31V49.5l2.93,2.93,49.62,49.62L80.8,151.67l-2.93,2.93v70.8L95,208.33l99.21-99.21,7.07-7.07L194.16,95,95-4.24,77.87-21.31Z" transform="translate(-2.83 21.31)"/><polygon class="cls-1" points="85.04 24.14 85.04 66.66 141.73 123.36 85.04 180.05 85.04 222.57 184.25 123.36 85.04 24.14"/><path class="cls-1" d="M246.14,174.39c-18,0-31.06-13.37-31.06-31.78v-3.84a2.5,2.5,0,0,1,2.5-2.5H230.3a2.5,2.5,0,0,1,2.5,2.5v5.28c0,6.6,5.44,12.62,11.42,12.62h40.56c6.73,0,11.42-6.65,11.42-12.62V124.37c0-6.9-5.16-12.67-11.49-12.86L247,110.31c-18.24-.53-31-13.6-31-31.78v-17c0-18.12,13.56-31.78,31.54-31.78h33.36c18,0,31.06,13.36,31.06,31.78v4.08a2.5,2.5,0,0,1-2.5,2.5H296.78a2.5,2.5,0,0,1-2.5-2.5V60.05c0-6-4.69-12.62-11.42-12.62H245.42c-6.21,0-11.66,5.89-11.66,12.62V80c0,6.77,5.27,12.66,11.5,12.86l37.67,1c18,.53,31,13.89,31,31.78v17c0,18.41-13.06,31.78-31.06,31.78Z" transform="translate(-2.83 21.31)"/><path class="cls-1" d="M280.94,32.21c16.56,0,28.56,12.24,28.56,29.28v4.08H296.78V60.05c0-7.68-6-15.12-13.92-15.12H245.42c-7.92,0-14.16,7.44-14.16,15.12V80c0,7.92,6.24,15.12,13.92,15.36l37.68,1c16.32.48,28.56,12.24,28.56,29.28v17c0,17-12,29.28-28.56,29.28H246.14c-16.56,0-28.56-12.24-28.56-29.28v-3.84H230.3v5.28c0,7.68,6.24,15.12,13.92,15.12h40.56c7.92,0,13.92-7.44,13.92-15.12V124.37c0-7.92-6-15.12-13.92-15.36l-37.68-1.2c-16.56-.48-28.56-12.24-28.56-29.28v-17c0-17,12.48-29.28,29-29.28h33.36m0-5H247.58c-19.41,0-34,14.73-34,34.28v17a34.28,34.28,0,0,0,9.51,24.36A34.68,34.68,0,0,0,247,112.8l37.66,1.2c4.93.15,9.08,4.9,9.08,10.37v19.68c0,4.78-3.66,10.12-8.92,10.12H244.22c-4.58,0-8.92-4.92-8.92-10.12v-5.28a5,5,0,0,0-5-5H217.58a5,5,0,0,0-5,5v3.84c0,19.86,14.11,34.28,33.56,34.28h36.72c19.45,0,33.56-14.42,33.56-34.28v-17c0-19.3-14.05-33.71-33.41-34.28l-37.7-1c-4.81-.15-9.05-5-9.05-10.36V60.05c0-4.78,3.92-10.12,9.16-10.12h37.44c5.26,0,8.92,5.33,8.92,10.12v5.52a5,5,0,0,0,5,5H309.5a5,5,0,0,0,5-5V61.49c0-19.87-14.11-34.28-33.56-34.28Z" transform="translate(-2.83 21.31)"/><path class="cls-1" d="M360.62,174.39c-18,0-31.06-13.37-31.06-31.78v-3.84a2.5,2.5,0,0,1,2.5-2.5h12.72a2.5,2.5,0,0,1,2.5,2.5v5.28c0,6.6,5.44,12.62,11.42,12.62h40.56c6.73,0,11.42-6.65,11.42-12.62V124.37c0-6.9-5.16-12.67-11.49-12.86l-37.69-1.2c-18.24-.53-31-13.6-31-31.78v-17c0-18.12,13.56-31.78,31.54-31.78h33.36c18,0,31.06,13.36,31.06,31.78v4.08a2.5,2.5,0,0,1-2.5,2.5H411.26a2.5,2.5,0,0,1-2.5-2.5V60.05c0-6-4.69-12.62-11.42-12.62H359.9c-6.21,0-11.66,5.89-11.66,12.62V80c0,6.77,5.26,12.66,11.5,12.86l37.66,1c18,.53,31,13.89,31,31.78v17c0,18.41-13.06,31.78-31.06,31.78Z" transform="translate(-2.83 21.31)"/><path class="cls-1" d="M395.42,32.21C412,32.21,424,44.45,424,61.49v4.08H411.26V60.05c0-7.68-6-15.12-13.92-15.12H359.9c-7.92,0-14.16,7.44-14.16,15.12V80c0,7.92,6.24,15.12,13.92,15.36l37.68,1c16.32.48,28.56,12.24,28.56,29.28v17c0,17-12,29.28-28.56,29.28H360.62c-16.56,0-28.56-12.24-28.56-29.28v-3.84h12.72v5.28c0,7.68,6.24,15.12,13.92,15.12h40.56c7.92,0,13.92-7.44,13.92-15.12V124.37c0-7.92-6-15.12-13.92-15.36l-37.68-1.2C345,107.33,333,95.57,333,78.53v-17c0-17,12.48-29.28,29-29.28h33.36m0-5H362.06c-19.41,0-34,14.73-34,34.28v17a34.28,34.28,0,0,0,9.51,24.36,34.68,34.68,0,0,0,23.9,9.91L399.1,114c4.93.15,9.08,4.9,9.08,10.37v19.68c0,4.78-3.66,10.12-8.92,10.12H358.7c-4.59,0-8.92-4.92-8.92-10.12v-5.28a5,5,0,0,0-5-5H332.06a5,5,0,0,0-5,5v3.84c0,19.86,14.11,34.28,33.56,34.28h36.72c19.45,0,33.56-14.42,33.56-34.28v-17c0-19.3-14-33.71-33.41-34.28l-37.7-1c-4.81-.15-9.05-5-9.05-10.36V60.05c0-4.78,3.92-10.12,9.16-10.12h37.44c5.26,0,8.92,5.33,8.92,10.12v5.52a5,5,0,0,0,5,5H424a5,5,0,0,0,5-5V61.49c0-19.87-14.11-34.28-33.56-34.28Z" transform="translate(-2.83 21.31)"/><path class="cls-1" d="M530.06,173.91a2.5,2.5,0,0,1-2.5-2.5V110.79h-63.4v60.62a2.5,2.5,0,0,1-2.5,2.5H448.94a2.5,2.5,0,0,1-2.5-2.5V32.21a2.49,2.49,0,0,1,2.5-2.5h12.72a2.49,2.49,0,0,1,2.5,2.5V93.07h63.4V32.21a2.49,2.49,0,0,1,2.5-2.5h12.72a2.49,2.49,0,0,1,2.5,2.5v139.2a2.5,2.5,0,0,1-2.5,2.5Z" transform="translate(-2.83 21.31)"/><path class="cls-1" d="M542.78,32.21v139.2H530.06V108.29h-68.4v63.12H448.94V32.21h12.72V95.57h68.4V32.21h12.72m0-5H530.06a5,5,0,0,0-5,5V90.57h-58.4V32.21a5,5,0,0,0-5-5H448.94a5,5,0,0,0-5,5v139.2a5,5,0,0,0,5,5h12.72a5,5,0,0,0,5-5V113.29h58.4v58.12a5,5,0,0,0,5,5h12.72a5,5,0,0,0,5-5V32.21a5,5,0,0,0-5-5Z" transform="translate(-2.83 21.31)"/><rect class="cls-1" x="562.88" y="167.42" width="27.8" height="27.8" rx="4.9"/><path class="cls-1" d="M588.62,148.61A2.27,2.27,0,0,1,591,151v18a2.27,2.27,0,0,1-2.4,2.4h-18a2.27,2.27,0,0,1-2.4-2.4V151a2.27,2.27,0,0,1,2.4-2.4h18m0-5h-18a7.24,7.24,0,0,0-7.4,7.4v18a7.24,7.24,0,0,0,7.4,7.4h18A7.24,7.24,0,0,0,596,169V151a7.24,7.24,0,0,0-7.4-7.4Z" transform="translate(-2.83 21.31)"/><path class="cls-1" d="M696.62,173.91a2.49,2.49,0,0,1-2.5-2.5V130.12l-62-70V171.41a2.49,2.49,0,0,1-2.5,2.5h-13.2a2.5,2.5,0,0,1-2.5-2.5V32.21a2.49,2.49,0,0,1,2.5-2.5h12.48a2.46,2.46,0,0,1,1.88.85l63.31,72.05V32.21a2.49,2.49,0,0,1,2.5-2.5h13.2a2.49,2.49,0,0,1,2.5,2.5v139.2a2.5,2.5,0,0,1-2.5,2.5Z" transform="translate(-2.83 21.31)"/><path class="cls-1" d="M709.82,32.21v139.2h-13.2V129.17l-67-75.6V171.41h-13.2V32.21h12.48l67.69,77v-77h13.2m0-5h-13.2a5,5,0,0,0-5,5V96L632.69,28.91a5,5,0,0,0-3.76-1.7H616.45a5,5,0,0,0-5,5v139.2a5,5,0,0,0,5,5h13.2a5,5,0,0,0,5-5V66.75l57,64.31v40.35a5,5,0,0,0,5,5h13.2a5,5,0,0,0,5-5V32.21a5,5,0,0,0-5-5Z" transform="translate(-2.83 21.31)"/><path class="cls-1" d="M735.25,173.91a2.5,2.5,0,0,1-2.5-2.5V32.21a2.49,2.49,0,0,1,2.5-2.5h79a2.49,2.49,0,0,1,2.5,2.5V44.69a2.5,2.5,0,0,1-2.5,2.5H750.47V93.07h48.86a2.49,2.49,0,0,1,2.5,2.5v12.72a2.49,2.49,0,0,1-2.5,2.5H750.47v45.4h63.75a2.5,2.5,0,0,1,2.5,2.5v12.72a2.5,2.5,0,0,1-2.5,2.5Z" transform="translate(-2.83 21.31)"/><path class="cls-1" d="M814.22,32.21V44.69H748V95.57h51.36v12.72H748v50.4h66.25v12.72h-79V32.21h79m0-5h-79a5,5,0,0,0-5,5v139.2a5,5,0,0,0,5,5h79a5,5,0,0,0,5-5V158.69a5,5,0,0,0-5-5H753v-40.4h46.36a5,5,0,0,0,5-5V95.57a5,5,0,0,0-5-5H753V49.69h61.25a5,5,0,0,0,5-5V32.21a5,5,0,0,0-5-5Z" transform="translate(-2.83 21.31)"/><path class="cls-1" d="M879.25,173.91a2.5,2.5,0,0,1-2.5-2.5V47.19h-39.5a2.5,2.5,0,0,1-2.5-2.5V32.21a2.49,2.49,0,0,1,2.5-2.5h98.64a2.49,2.49,0,0,1,2.5,2.5V44.69a2.5,2.5,0,0,1-2.5,2.5H896.15V171.41a2.5,2.5,0,0,1-2.5,2.5Z" transform="translate(-2.83 21.31)"/><path class="cls-1" d="M935.89,32.21V44.69H893.65V171.41h-14.4V44.69h-42V32.21h98.64m0-5H837.25a5,5,0,0,0-5,5V44.69a5,5,0,0,0,5,5h37V171.41a5,5,0,0,0,5,5h14.4a5,5,0,0,0,5-5V49.69h37.24a5,5,0,0,0,5-5V32.21a5,5,0,0,0-5-5Z" transform="translate(-2.83 21.31)"/></svg>